<svg class="icon__svg" width="26" height="26" viewBox="0 0 26 26" aria-labelledby="icon-organisation-organisation-admin"
    role="img">
    <title id="icon-organisation-organisation-admin">Organisation admin</title>
    <path class="icon__fill" fill-rule="evenodd"
        d="M12.367 8.632c-1.742-.354-2.965-2.138-2.388-4.073a3.101 3.101 0 0 1 2.135-2.075 3.173 3.173 0 0 1 4.051 3.045 3.167 3.167 0 0 1-2.532 3.103v3.334h6.716c1.094 0 2.042.692 2.042 1.648v3.1h1.021c.777 0 1.407.63 1.407 1.406v3.52c0 .775-.63 1.405-1.407 1.405h-3.518c-.778 0-1.406-.63-1.406-1.405v-3.52c0-.776.628-1.406 1.406-1.406h1.194v-3.1c0-.165-.297-.382-.739-.382h-6.716v3.482h1.126c.778 0 1.406.63 1.406 1.406v3.52c0 .775-.628 1.405-1.406 1.405h-3.518c-.777 0-1.407-.63-1.407-1.405v-3.52c0-.776.63-1.406 1.407-1.406h1.126v-3.482H5.756c-.442 0-.739.217-.739.382v3.1h1.09c.776 0 1.406.63 1.406 1.406v3.52c0 .775-.63 1.405-1.406 1.405H2.589c-.778 0-1.407-.63-1.407-1.405v-3.52c0-.776.629-1.406 1.407-1.406h1.126v-3.1c0-.956.947-1.648 2.04-1.648h6.612V8.632zm-1.266 9.792v2.911c0 .246.199.444.443.444h2.912a.444.444 0 0 0 .444-.444v-2.91a.444.444 0 0 0-.444-.445h-2.912c-.244 0-.443.2-.443.444zm12.008-.444h-2.912c-.245 0-.444.2-.444.444v2.911c0 .246.199.444.444.444h2.912a.444.444 0 0 0 .443-.444v-2.91a.444.444 0 0 0-.443-.445zm-17.306 0H2.891c-.244 0-.443.2-.443.444v2.911c0 .246.199.444.443.444h2.912a.444.444 0 0 0 .443-.444v-2.91a.444.444 0 0 0-.443-.445zm5.298-12.45a1.898 1.898 0 1 0 3.797 0 1.898 1.898 0 0 0-3.797 0z">
    </path>
</svg>