<svg class="icon__svg" width="18" height="18" viewBox="0 0 26 26">
    <title id="icon-processes-processes">Processes</title>
    <path class="icon__fill" fill-rule="evenodd" stroke="currentColor" stroke-width="1.1"
        d="M8.632 13.633c-.354 1.742-2.14 2.966-4.074 2.389a3.108 3.108 0 0 1-2.074-2.137 3.173 3.173 0 0 1 3.045-4.051 3.168 3.168 0 0 1 3.103 2.533h3.333V5.65c0-1.094.693-2.04 1.65-2.04h3.099V2.587c0-.776.63-1.406 1.406-1.406h3.519c.777 0 1.406.63 1.406 1.406v3.518c0 .777-.629 1.407-1.406 1.407H18.12c-.776 0-1.406-.63-1.406-1.407V4.912h-3.1c-.165 0-.382.296-.382.738v6.717h3.482V11.24c0-.776.63-1.406 1.406-1.406h3.519c.777 0 1.406.63 1.406 1.406v3.519c0 .776-.629 1.407-1.406 1.407H18.12a1.408 1.408 0 0 1-1.406-1.407v-1.126h-3.482v6.612c0 .442.217.738.382.738h3.1v-1.09c0-.776.63-1.407 1.406-1.407h3.519c.777 0 1.406.631 1.406 1.408v3.518c0 .776-.629 1.406-1.406 1.406H18.12c-.776 0-1.406-.63-1.406-1.406v-1.126h-3.1c-.956 0-1.649-.948-1.649-2.041v-6.612H8.632zm9.792 1.266h2.912a.444.444 0 0 0 .443-.444v-2.911a.443.443 0 0 0-.443-.443h-2.912a.443.443 0 0 0-.443.443v2.91c0 .247.198.445.443.445zm-.443-12.007v2.91c0 .247.198.445.443.445h2.912a.444.444 0 0 0 .443-.444V2.892a.444.444 0 0 0-.443-.444h-2.912c-.245 0-.443.2-.443.444zm0 17.305v2.911c0 .246.198.444.443.444h2.912a.444.444 0 0 0 .443-.444v-2.91a.444.444 0 0 0-.443-.445h-2.912c-.245 0-.443.2-.443.444zM5.529 14.9a1.898 1.898 0 1 0 .002-3.797 1.898 1.898 0 0 0-.002 3.797z">
    </path>
</svg>