<svg class="icon__svg" width="26" height="26" viewBox="0 0 26 26" aria-labelledby="icon-task-tasks" role="img">
    <title id="icon-task-tasks">Tasks</title>
    <path class="icon__fill" fill-rule="evenodd"
        d="M11.763 7.085a.688.688 0 0 0-.971 0l-8.093 8.092.755.755a4.883 4.883 0 0 1 5.757.857 4.888 4.888 0 0 1 .858 5.758l.753.753 8.092-8.092a.686.686 0 0 0 0-.971l-7.151-7.152zm8.155 6.15a.688.688 0 0 0 .971 0l1.926-1.929a.684.684 0 0 0 0-.97l-7.152-7.151a.687.687 0 0 0-.97 0L12.767 5.11a.686.686 0 0 0 0 .97l7.151 7.154zM14.331 1.538a1.197 1.197 0 0 1 1.694 0l8.437 8.437a1.195 1.195 0 0 1 0 1.692L11.669 24.461a1.197 1.197 0 0 1-1.694 0l-1.038-1.037c-.39-.39-.443-.985-.168-1.463a3.468 3.468 0 1 0-4.73-4.73c-.479.272-1.074.221-1.464-.168l-1.037-1.039a1.197 1.197 0 0 1 0-1.694L14.331 1.54z">
    </path>
</svg>