<svg class="icon__svg" width="40" height="40" viewBox="0 0 40 40" aria-labelledby="icon-apps-" role="img">
    <title id="icon-apps-"></title>
    <g fill="none" fill-rule="evenodd">
        <path class="icon__fill icon__fill--inverse"
            d="M604 238.667c.737 0 1.333.596 1.333 1.333v14.667c0 .737-.596 1.333-1.333 1.333h-14.667c-.737 0-1.333-.596-1.333-1.333V240c0-.737.596-1.333 1.333-1.333zm22.667 0c.737 0 1.333.596 1.333 1.333v14.667c0 .737-.596 1.333-1.333 1.333H612c-.737 0-1.333-.596-1.333-1.333V240c0-.737.596-1.333 1.333-1.333zM604 216c.737 0 1.333.596 1.333 1.333V232c0 .737-.596 1.333-1.333 1.333h-14.667c-.737 0-1.333-.596-1.333-1.333v-14.667c0-.737.596-1.333 1.333-1.333zm22.667 0c.737 0 1.333.596 1.333 1.333V232c0 .737-.596 1.333-1.333 1.333H612c-.737 0-1.333-.596-1.333-1.333v-14.667c0-.737.596-1.333 1.333-1.333z"
            transform="translate(-588 -216)"></path>
    </g>
</svg>