<svg width="16" height="17" viewBox="0 0 16 17" fill="none" xmlns="http://www.w3.org/2000/svg">
<path d="M0 2.27778C0 1.80628 0.187301 1.3541 0.520699 1.0207C0.854097 0.687301 1.30628 0.5 1.77778 0.5H14.2222C14.6937 0.5 15.1459 0.687301 15.4793 1.0207C15.8127 1.3541 16 1.80628 16 2.27778V14.7222C16 15.1937 15.8127 15.6459 15.4793 15.9793C15.1459 16.3127 14.6937 16.5 14.2222 16.5H1.77778C1.30628 16.5 0.854097 16.3127 0.520699 15.9793C0.187301 15.6459 0 15.1937 0 14.7222V2.27778ZM14.2222 2.27778H1.77778V14.7222H14.2222V2.27778ZM8 4.05556C8.23575 4.05556 8.46184 4.14921 8.62854 4.31591C8.79524 4.4826 8.88889 4.7087 8.88889 4.94444V12.0556C8.88889 12.2913 8.79524 12.5174 8.62854 12.6841C8.46184 12.8508 8.23575 12.9444 8 12.9444C7.76425 12.9444 7.53816 12.8508 7.37146 12.6841C7.20476 12.5174 7.11111 12.2913 7.11111 12.0556V4.94444C7.11111 4.7087 7.20476 4.4826 7.37146 4.31591C7.53816 4.14921 7.76425 4.05556 8 4.05556ZM11.5556 5.83333C11.7913 5.83333 12.0174 5.92698 12.1841 6.09368C12.3508 6.26038 12.4444 6.48647 12.4444 6.72222V12.0556C12.4444 12.2913 12.3508 12.5174 12.1841 12.6841C12.0174 12.8508 11.7913 12.9444 11.5556 12.9444C11.3198 12.9444 11.0937 12.8508 10.927 12.6841C10.7603 12.5174 10.6667 12.2913 10.6667 12.0556V6.72222C10.6667 6.48647 10.7603 6.26038 10.927 6.09368C11.0937 5.92698 11.3198 5.83333 11.5556 5.83333ZM4.44444 7.61111C4.68019 7.61111 4.90628 7.70476 5.07298 7.87146C5.23968 8.03816 5.33333 8.26425 5.33333 8.5V12.0556C5.33333 12.2913 5.23968 12.5174 5.07298 12.6841C4.90628 12.8508 4.68019 12.9444 4.44444 12.9444C4.2087 12.9444 3.9826 12.8508 3.81591 12.6841C3.64921 12.5174 3.55556 12.2913 3.55556 12.0556V8.5C3.55556 8.26425 3.64921 8.03816 3.81591 7.87146C3.9826 7.70476 4.2087 7.61111 4.44444 7.61111Z" fill="#FFFCF9"/>
</svg>
